<svg xmlns="http://www.w3.org/2000/svg" viewBox="0 0 120 120" width="480" height="480">
  <rect width="120" height="120" fill="none"/>
  <!-- party popper cone -->
  <path d="M30 95 L60 35 L90 95 Z" fill="#d32f2f" stroke="#b71c1c" stroke-width="2"/>
  <path d="M33 92 L60 40 L87 92" fill="#ff8a80" opacity="0.9"/>
  <!-- ribbon lines -->
  <path d="M60 35 L58 18" stroke="#ffeb3b" stroke-width="3" stroke-linecap="round"/>
  <path d="M60 35 L74 20" stroke="#ffd54f" stroke-width="3" stroke-linecap="round"/>
  <path d="M60 35 L46 22" stroke="#fff176" stroke-width="3" stroke-linecap="round"/>
  <!-- confetti dots -->
  <circle cx="20" cy="20" r="3" fill="#ff4d88" />
  <circle cx="40" cy="14" r="3" fill="#ffd54f" />
  <circle cx="72" cy="10" r="3" fill="#ff9ac2" />
  <circle cx="100" cy="18" r="3" fill="#4caf50" />
  <circle cx="88" cy="36" r="3" fill="#ff6b6b" />
  <circle cx="60" cy="6" r="3" fill="#ffcc80" />
  <circle cx="48" cy="46" r="3" fill="#81c784" />
  <!-- star confetti -->
  <path d="M16 36 l2 5 l5 0 l-4 3 l1 5 l-4-3 l-4 3 l1-5 l-4-3 l5 0 z" fill="#ffd54f" transform="scale(.45) translate(40,40)" />
</svg>